<?xml version="1.0" standalone="no"?><!DOCTYPE svg PUBLIC "-//W3C//DTD SVG 1.1//EN" "http://www.w3.org/Graphics/SVG/1.1/DTD/svg11.dtd"><svg t="1604818288245" class="icon" viewBox="0 0 1024 1024" version="1.1" xmlns="http://www.w3.org/2000/svg" p-id="2876" xmlns:xlink="http://www.w3.org/1999/xlink" width="32" height="32"><defs><style type="text/css"></style></defs><path d="M676.266667 418.133333c0-14.933333-10.666667-25.6-25.6-25.6H292.266667c-14.933333 0-25.6 10.666667-25.6 25.6s10.666667 25.6 25.6 25.6h360.533333c12.8 2.133333 23.466667-10.666667 23.466667-25.6zM189.866667 829.866667V264.533333c0-27.733333 23.466667-51.2 51.2-51.2h55.466666c10.666667 44.8 51.2 76.8 98.133334 76.8h153.6c46.933333 0 87.466667-32 98.133333-76.8h55.466667c27.733333 0 51.2 23.466667 51.2 51.2V469.333333h51.2v-204.8c0-57.6-46.933333-102.4-102.4-102.4h-55.466667C635.733333 117.333333 595.2 85.333333 548.266667 85.333333h-153.6c-46.933333 0-87.466667 32-98.133334 76.8h-55.466666c-57.6 0-102.4 46.933333-102.4 102.4v565.333334c0 57.6 46.933333 102.4 102.4 102.4h179.2v-51.2h-179.2c-29.866667 0-51.2-23.466667-51.2-51.2z m204.8-693.333334h153.6c27.733333 0 51.2 23.466667 51.2 51.2 0 27.733333-23.466667 51.2-51.2 51.2h-153.6c-27.733333 0-51.2-23.466667-51.2-51.2 0-27.733333 23.466667-51.2 51.2-51.2z m477.866666 490.666667L797.866667 554.666667c-19.2-21.333333-51.2-21.333333-72.533334 0l-181.333333 181.333333s-76.8 181.333333-55.466667 200.533333c21.333333 19.2 200.533333-55.466667 200.533334-55.466666l181.333333-181.333334c21.333333-21.333333 21.333333-53.333333 2.133333-72.533333z m-55.466666 53.333333l-164.266667 164.266667s-100.266667 44.8-108.8 36.266667c-8.533333-8.533333 36.266667-108.8 36.266667-108.8l164.266666-164.266667c10.666667-10.666667 25.6-10.666667 36.266667 0l36.266667 36.266667c10.666667 10.666667 10.666667 27.733333 0 36.266666z m-524.8-157.866666c-14.933333 0-25.6 10.666667-25.6 25.6s10.666667 25.6 25.6 25.6h204.8c14.933333 0 25.6-10.666667 25.6-25.6s-10.666667-25.6-25.6-25.6h-204.8z" fill="#32bc08" p-id="2877"></path></svg>