<?xml version="1.0" standalone="no"?><!DOCTYPE svg PUBLIC "-//W3C//DTD SVG 1.1//EN" "http://www.w3.org/Graphics/SVG/1.1/DTD/svg11.dtd"><svg t="1604565382119" class="icon" viewBox="0 0 1024 1024" version="1.1" xmlns="http://www.w3.org/2000/svg" p-id="7543" xmlns:xlink="http://www.w3.org/1999/xlink" width="32" height="32"><defs><style type="text/css"></style></defs><path d="M805.74 833.34c-12.21-0.83-21.44-11.4-20.62-23.62l2.67-39.32c0.83-12.21 11.4-21.44 23.62-20.62 12.21 0.83 21.44 11.4 20.62 23.62l-2.67 39.32c-0.83 12.22-11.4 21.45-23.62 20.62zM213.04 775.98h-45.42V197.2c0-41.04 33.39-74.43 74.43-74.43h566.53v45.42H242.05c-16 0-29.01 13.02-29.01 29.01v578.78z" fill="#909090" p-id="7544"></path><path d="M707.05 908.24H138.6c-43.03 0-78.03-38.16-78.03-85.07v-42.7c0-14.29 11.42-25.91 25.46-25.91h512.36c26.05 0 48.82 17.96 56.66 44.69 3.99 13.62 8.98 26.19 14.83 37.36l37.17 71.63zM103.42 797.41v25.76c0 23.28 15.78 42.23 35.18 42.23h497.94l-4.65-8.96c-7.13-13.6-13.19-28.81-17.96-45.13-2.43-8.3-8.68-13.89-15.55-13.89H103.42z" fill="#909090" p-id="7545"></path><path d="M718.31 909.24c-62.53 0-101.3-80.04-110.96-110.88l43.35-13.58c10.12 32.31 40.02 79.04 67.61 79.04 36.71 0 66.57-29.86 66.57-66.57h45.42c0 61.75-50.24 111.99-111.99 111.99zM833.16 150.01v312.84c0 13.57-11.01 24.58-24.59 24.58-13.63 0-24.64-11.01-24.64-24.58V150.01c0-13.57 11.02-24.58 24.64-24.58 6.76 0 12.95 2.78 17.37 7.21a23.8 23.8 0 0 1 6.93 14.02c0.23 1.08 0.29 2.22 0.29 3.35z" fill="#909090" p-id="7546"></path><path d="M921.11 296.02h-89.82V250.6h80.18v-28.51c0-28.49-23.18-51.66-51.66-51.66l-0.89-0.02-56.9-2.23 1.79-45.39 56.48 2.22c53.32 0.26 96.61 43.71 96.61 97.08v38.16c-0.02 19.72-16.06 35.77-35.79 35.77z" fill="#909090" p-id="7547"></path><path d="M717.977 666.613l192.758-273.576 54.748 38.574-192.758 273.577zM705.63 687.42l60.67 43.72-58.32 23.64c-3.54 1.44-7.36-1.35-7.07-5.16l4.72-62.2z" fill="#909090" p-id="7548"></path><path d="M621.27 312.11h-221.1c-11.62 0-21.03-9.42-21.03-21.03 0-11.62 9.42-21.03 21.03-21.03h221.1c11.62 0 21.03 9.42 21.03 21.03 0 11.62-9.42 21.03-21.03 21.03zM582.37 562.46H396.29c-10.74 0-19.45-8.71-19.45-19.45v-3.17c0-10.74 8.71-19.45 19.45-19.45h186.08c10.74 0 19.45 8.71 19.45 19.45v3.17c0 10.74-8.71 19.45-19.45 19.45zM626.95 687.42H400.17c-11.62 0-21.03-9.42-21.03-21.03 0-11.62 9.42-21.03 21.03-21.03h226.77c11.62 0 21.03 9.42 21.03 21.03 0.01 11.61-9.41 21.03-21.02 21.03zM690.74 437.29H400.17c-11.62 0-21.03-9.42-21.03-21.03 0-11.62 9.42-21.03 21.03-21.03h290.57c11.62 0 21.03 9.42 21.03 21.03 0.01 11.61-9.41 21.03-21.03 21.03z" fill="#909090" p-id="7549"></path><path d="M309.81 290.31m-22.69 0a22.69 22.69 0 1 0 45.38 0 22.69 22.69 0 1 0-45.38 0Z" fill="#909090" p-id="7550"></path><path d="M309.81 416.25m-22.69 0a22.69 22.69 0 1 0 45.38 0 22.69 22.69 0 1 0-45.38 0Z" fill="#909090" p-id="7551"></path><path d="M309.81 541.42m-22.69 0a22.69 22.69 0 1 0 45.38 0 22.69 22.69 0 1 0-45.38 0Z" fill="#909090" p-id="7552"></path><path d="M309.81 666.38m-22.69 0a22.69 22.69 0 1 0 45.38 0 22.69 22.69 0 1 0-45.38 0Z" fill="#909090" p-id="7553"></path></svg>