<?xml version="1.0" standalone="no"?><!DOCTYPE svg PUBLIC "-//W3C//DTD SVG 1.1//EN" "http://www.w3.org/Graphics/SVG/1.1/DTD/svg11.dtd"><svg t="1604555917012" class="icon" viewBox="0 0 1024 1024" version="1.1" xmlns="http://www.w3.org/2000/svg" p-id="4303" xmlns:xlink="http://www.w3.org/1999/xlink" width="32" height="32"><defs><style type="text/css"></style></defs><path d="M916.399158 0 107.600842 0C93.022316 0 80.842105 12.018526 80.842105 26.866526l0 970.266947C80.842105 1011.792842 92.806737 1024 107.600842 1024l808.798316 0C930.977684 1024 943.157895 1011.981474 943.157895 997.133474L943.157895 26.866526C943.157895 12.207158 931.193263 0 916.399158 0zM215.605895 134.736842 808.421053 134.736842c14.874947 0 26.947368 11.964632 26.947368 26.947368 0 14.874947-12.045474 26.947368-26.974316 26.947368L215.605895 188.631579C200.704 188.631579 188.631579 176.666947 188.631579 161.684211 188.631579 146.809263 200.677053 134.736842 215.605895 134.736842zM215.605895 323.368421 808.421053 323.368421c14.874947 0 26.947368 11.964632 26.947368 26.947368 0 14.874947-12.045474 26.947368-26.974316 26.947368L215.605895 377.263158C200.704 377.263158 188.631579 365.298526 188.631579 350.315789 188.631579 335.440842 200.677053 323.368421 215.605895 323.368421zM215.605895 512 808.421053 512c14.874947 0 26.947368 11.964632 26.947368 26.947368 0 14.874947-12.045474 26.947368-26.974316 26.947368L215.605895 565.894737C200.704 565.894737 188.631579 553.930105 188.631579 538.947368 188.631579 524.072421 200.677053 512 215.605895 512zM350.234947 754.526316 215.659789 754.526316C200.730947 754.526316 188.631579 742.561684 188.631579 727.578947c0-14.874947 11.802947-26.947368 27.028211-26.947368l134.575158 0C365.163789 700.631579 377.263158 712.596211 377.263158 727.578947 377.263158 742.453895 365.460211 754.526316 350.234947 754.526316zM827.796211 712.434526l-209.650526 209.650526c-5.254737 5.254737-12.099368 7.895579-19.078737 7.841684 0 0 0 0 0 0s0 0-0.026947 0c-1.832421 0-3.584-0.673684-5.389474-1.050947-1.562947-0.323368-3.206737-0.323368-4.715789-0.916211-3.233684-1.293474-6.251789-3.260632-8.838737-5.847579l-114.445474-114.445474c-10.482526-10.482526-10.536421-27.459368 0.053895-38.049684 2.640842-2.640842 5.685895-4.608 8.946526-5.901474 9.754947-3.934316 21.342316-1.940211 29.130105 5.847579l95.312842 95.339789 190.571789-190.571789c5.254737-5.254737 12.126316-7.895579 19.024842-7.895579 6.898526 0 13.770105 2.613895 19.078737 7.922526C838.278737 684.894316 838.278737 701.952 827.796211 712.434526z" p-id="4304" fill="#ffffff"></path></svg>