<?xml version="1.0" standalone="no"?><!DOCTYPE svg PUBLIC "-//W3C//DTD SVG 1.1//EN" "http://www.w3.org/Graphics/SVG/1.1/DTD/svg11.dtd"><svg t="1604566792406" class="icon" viewBox="0 0 1024 1024" version="1.1" xmlns="http://www.w3.org/2000/svg" p-id="7168" xmlns:xlink="http://www.w3.org/1999/xlink" width="32" height="32"><defs><style type="text/css"></style></defs><path d="M754.635355 209.58089l-0.555918-82.275787s7.226927-58.371336-66.710098-58.371335H119.777591s-49.476656-2.22367-49.476655 47.808903v714.353963s5.559175 57.815418 62.262757 57.815418h145.094463s29.463626 5.559175 29.463626 36.134636c0 31.131379-27.239957 32.243214-27.239956 32.243214l-181.785016-0.555917S1.923085 939.500543 1.367168 848.330076 0.255333 123.413681 0.255333 123.413681-11.418934 0 123.113096 0s589.828447 1.111835 589.828448 1.111835 106.180239 0.555917 107.847991 98.397394c1.667752 97.841477 1.667752 111.739414 1.667752 111.739414s-3.891422 31.687296-33.355049 31.687296c-28.351792 0.555917-34.466884-29.463626-34.466883-33.355049z" p-id="7169" fill="#909090"></path><path d="M617.879654 506.996743V644.864278s-1.667752 16.121607 13.34202 31.131379c14.453855 15.009772 134.53203 136.7557 134.53203 136.7557s22.792617 11.674267 42.249729-7.782845-2.779587-45.029316-2.779588-45.029315l-111.739413-117.854506s-8.338762-5.559175-8.338763-27.239957-0.555917-108.403909-0.555917-108.403909-8.89468-28.351792-32.243214-28.351791c-22.236699 0-33.910966 19.457112-34.466884 28.907709z" p-id="7170" fill="#909090"></path><path d="M684.589752 344.112921C497.245561 344.112921 344.924171 496.434311 344.924171 684.334419s152.32139 339.665581 339.665581 339.665581 339.665581-152.32139 339.665581-339.665581-151.765472-340.221498-339.665581-340.221498z m0 613.732899c-151.209555 0-274.067318-122.857763-274.067318-274.067318s122.857763-274.067318 274.067318-274.067319 274.067318 122.857763 274.067318 274.067319-122.301846 274.067318-274.067318 274.067318zM286.552836 478.089034H194.270534c-15.009772 0-27.239957-12.230185-27.239957-27.239957v-14.453854c0-15.009772 12.230185-27.239957 27.239957-27.239957h91.726384c15.009772 0 27.239957 12.230185 27.239957 27.239957v14.453854c0 15.565689-12.230185 27.239957-26.684039 27.239957zM628.442086 273.511401H194.826451c-15.009772 0-27.239957-12.230185-27.239956-27.239957v-14.453854c0-15.009772 12.230185-27.239957 27.239956-27.239957h433.615635c15.009772 0 27.239957 12.230185 27.239957 27.239957v14.453854c0 15.009772-12.230185 27.239957-27.239957 27.239957z" p-id="7171" fill="#909090"></path></svg>