<?xml version="1.0" standalone="no"?><!DOCTYPE svg PUBLIC "-//W3C//DTD SVG 1.1//EN" "http://www.w3.org/Graphics/SVG/1.1/DTD/svg11.dtd"><svg t="1604565433031" class="icon" viewBox="0 0 1024 1024" version="1.1" xmlns="http://www.w3.org/2000/svg" p-id="9341" xmlns:xlink="http://www.w3.org/1999/xlink" width="32" height="32"><defs><style type="text/css"></style></defs><path d="M285.029693 618.545188c0 15.421606 12.181354 27.911903 27.231985 27.911903h326.680436c15.049415 0 27.23685-12.491513 27.23685-27.911903 0-15.415525-12.183786-27.910687-27.23685-27.910687H312.261678c-15.050631 0-27.231985 12.496378-27.231985 27.910687zM544.262039 423.122945H312.261678c-15.050631 0-27.231985 12.495162-27.231985 27.914335s12.181354 27.93258 27.231985 27.932581h232.000361c15.049415 0 27.23685-12.518272 27.23685-27.932581 0-15.419174-12.18257-27.914336-27.23685-27.914335zM868.71176 15.617432c-10.900578-10.900578-28.352208-11.121947-38.996144-0.476794L539.739795 305.116459c-10.642721 10.642721-10.420136 28.090701 0.480443 38.992496 10.90666 10.905444 28.352208 11.12438 38.993712 0.481659L869.190987 54.613577c10.640288-10.640288 10.426217-28.090701-0.479227-38.996145z" p-id="9342" fill="#909090"></path><path d="M775.050954 776.164487c0 30.838347-24.335949 55.823806-54.39464 55.823806l-490.106404 0.013379c-30.058692 0-54.393424-25.008569-54.393424-55.843267V161.931122c0-30.838347 24.334733-55.823806 54.393424-55.823806h376.187939v-55.840835H230.551127c-60.112518 0-108.865909 49.994028-108.865909 111.670722v614.222419c0 61.66818 48.749742 111.671938 108.865909 111.671938h490.106403c60.113735 0 108.865909-49.995244 108.865909-111.670722V273.858485H775.04244l0.008514 502.306002z" p-id="9343" fill="#909090"></path></svg>