<?xml version="1.0" standalone="no"?><!DOCTYPE svg PUBLIC "-//W3C//DTD SVG 1.1//EN" "http://www.w3.org/Graphics/SVG/1.1/DTD/svg11.dtd"><svg t="1604562311843" class="icon" viewBox="0 0 1343 1024" version="1.1" xmlns="http://www.w3.org/2000/svg" p-id="5263" xmlns:xlink="http://www.w3.org/1999/xlink" width="41.96875" height="32"><defs><style type="text/css"></style></defs><path d="M1307.573722 164.917714H592.930296c-23.559673 0-39.266122-15.706449-39.266122-39.266123s15.706449-39.266122 39.266122-39.266122h714.643426c15.706449-7.853224 31.412898 15.706449 31.412898 39.266122s-15.706449 39.266122-31.412898 39.266123zM1071.976988 526.166039H592.930296c-23.559673 0-39.266122-23.559673-39.266122-47.119347s15.706449-39.266122 39.266122-39.266122h479.046692c15.706449 0 39.266122 15.706449 39.266123 39.266122-7.853224 23.559673-23.559673 47.119347-39.266123 47.119347zM914.912499 879.56114H592.930296c-15.706449 0-31.412898-15.706449-31.412898-39.266123-7.853224-31.412898 7.853224-54.972571 23.559674-54.972571h321.982203c15.706449 0 31.412898 15.706449 31.412898 39.266122 7.853224 31.412898-7.853224 54.972571-23.559674 54.972572zM428.012582 801.028895c-15.706449-15.706449-31.412898-23.559673-47.119346-7.853224l-117.798367 102.091918V47.119347c0-31.412898-15.706449-47.119347-39.266123-47.119347s-47.119347 15.706449-47.119346 39.266122v856.001467L58.911033 793.175671c-7.853224-7.853224-23.559673-7.853224-39.266123 7.853224l-7.853224 7.853225c-15.706449 15.706449-15.706449 31.412898 0 47.119346L208.122298 1020.91918c15.706449 7.853224 31.412898 0 47.119346-15.706449l180.624163-157.064489c7.853224-7.853224 7.853224-31.412898-7.853225-47.119347z" fill="#909090" p-id="5264"></path></svg>