<?xml version="1.0" standalone="no"?><!DOCTYPE svg PUBLIC "-//W3C//DTD SVG 1.1//EN" "http://www.w3.org/Graphics/SVG/1.1/DTD/svg11.dtd"><svg t="1604547794858" class="icon" viewBox="0 0 1024 1024" version="1.1" xmlns="http://www.w3.org/2000/svg" p-id="3280" xmlns:xlink="http://www.w3.org/1999/xlink" width="32" height="32"><defs><style type="text/css"></style></defs><path d="M878.08 960H165.12c-12.8 0-23.04-10.24-23.04-23.04V88.32c0-12.8 10.24-23.04 23.04-23.04h712.96c12.8 0 23.04 10.24 23.04 23.04v848.64c0 12.8-10.24 23.04-23.04 23.04M259.84 724.48h119.04c12.8 0 23.04-10.24 23.04-23.04s-10.24-23.04-23.04-23.04h-120.32c-12.8 0-23.04 10.24-23.04 23.04s10.24 23.04 24.32 23.04m522.24-541.44H259.84c-12.8 0-23.04 10.24-23.04 23.04s10.24 23.04 23.04 23.04h522.24c12.8 0 23.04-10.24 23.04-23.04 1.28-12.8-8.96-23.04-23.04-23.04 1.28 0 1.28 0 0 0m0 163.84H259.84c-12.8 0-23.04 10.24-23.04 23.04s10.24 23.04 23.04 23.04h523.52c12.8 0 23.04-10.24 23.04-23.04 0-11.52-10.24-23.04-24.32-23.04m0 165.12H259.84c-12.8 0-23.04 10.24-23.04 23.04s10.24 23.04 23.04 23.04h522.24c12.8 0 23.04-10.24 23.04-23.04 1.28-11.52-8.96-23.04-23.04-23.04m-189.44 122.88h-40.96c-15.36 0-29.44 10.24-34.56 24.32l-26.88 67.84c-16.64 3.84-29.44 17.92-29.44 35.84v87.04h30.72v21.76c0 34.56 40.96 33.28 40.96 0v-21.76H716.8v21.76c0 33.28 40.96 34.56 40.96 0v-21.76h30.72v-87.04c0-17.92-12.8-33.28-29.44-35.84l-26.88-67.84c-5.12-14.08-19.2-24.32-34.56-24.32h-104.96z m-65.28 162.56c-12.8 0-24.32-10.24-24.32-23.04s10.24-23.04 23.04-23.04 23.04 10.24 23.04 23.04c1.28 12.8-8.96 23.04-21.76 23.04z m-8.96-71.68l20.48-52.48c1.28-7.68 7.68-12.8 15.36-12.8h142.08c7.68 0 14.08 5.12 15.36 12.8l20.48 52.48H518.4z m203.52 71.68c-12.8 0-24.32-10.24-24.32-23.04s10.24-23.04 23.04-23.04 23.04 10.24 23.04 23.04c2.56 12.8-8.96 23.04-21.76 23.04z m0 0" p-id="3281" fill="#ffffff"></path></svg>