<?xml version="1.0" standalone="no"?><!DOCTYPE svg PUBLIC "-//W3C//DTD SVG 1.1//EN" "http://www.w3.org/Graphics/SVG/1.1/DTD/svg11.dtd"><svg t="1604566491492" class="icon" viewBox="0 0 1070 1024" version="1.1" xmlns="http://www.w3.org/2000/svg" p-id="2907" xmlns:xlink="http://www.w3.org/1999/xlink" width="33.4375" height="32"><defs><style type="text/css"></style></defs><path d="M550.153924 947.68782h-433.188655a38.986979 38.986979 0 0 1-37.987313-37.987312V116.965269a38.986979 38.986979 0 0 1 37.987313-37.987313h787.403686a38.986979 38.986979 0 0 1 37.987313 37.987313v237.254094a38.320535 38.320535 0 0 0 76.307847 0V116.965269A116.294493 116.294493 0 0 0 901.369957 0.004332H116.965269A115.961271 115.961271 0 0 0 0.004332 116.965269v790.069462a115.961271 115.961271 0 0 0 116.960937 116.960937h433.188655a38.986979 38.986979 0 0 0 37.987313-37.987313 37.320869 37.320869 0 0 0-37.987313-38.320535z m0 0" fill="#909090" p-id="2908"></path><path d="M247.921531 236.925204a38.320535 38.320535 0 1 0 0 76.307848h531.155936a38.320535 38.320535 0 0 0 0-76.307848z m313.22872 233.25543h-313.22872a38.320535 38.320535 0 1 0 0 76.307847h310.562944a46.317864 46.317864 0 0 0 26.990985-10.996327 33.322204 33.322204 0 0 0 10.996328-27.324207 33.322204 33.322204 0 0 0-35.321537-37.987313z m-163.612023 319.559938a33.322204 33.322204 0 0 0 27.324208-10.663105 33.322204 33.322204 0 0 0 10.996327-27.324208 38.986979 38.986979 0 0 0-38.320535-38.320534H247.921531a38.320535 38.320535 0 1 0 0 76.307847z m0 0M836.72488 999.670459a131.289485 131.289485 0 0 1-93.302172-38.653757l-103.965277-99.966613a148.283809 148.283809 0 0 1-7.664107-199.933225 133.288817 133.288817 0 0 1 194.268451-7.997329l3.33222 3.33222 2.998999-3.33222a133.288817 133.288817 0 0 1 193.935228-7.997329 147.617365 147.617365 0 0 1 6.997663 199.933225l-95.967948 109.963274A133.288817 133.288817 0 0 1 836.72488 999.670459zM733.092825 680.443742a66.644408 66.644408 0 0 0-50.64975 23.325543 81.972622 81.972622 0 0 0 3.998664 108.630386l103.965277 101.632723a66.644408 66.644408 0 0 0 96.967615-3.998664L983.342579 799.737234a77.973958 77.973958 0 0 0 18.993656-51.982639 79.640068 79.640068 0 0 0-22.659098-56.314525 66.644408 66.644408 0 0 0-49.316863-19.326879 66.644408 66.644408 0 0 0-47.983974 23.325543l-26.324541 29.989984a33.322204 33.322204 0 0 1-23.658765 11.32955 33.322204 33.322204 0 0 1-24.658431-9.330218l-28.323874-27.657429a66.644408 66.644408 0 0 0-46.317864-19.326879z" fill="#909090" p-id="2909"></path></svg>