<?xml version="1.0" standalone="no"?><!DOCTYPE svg PUBLIC "-//W3C//DTD SVG 1.1//EN" "http://www.w3.org/Graphics/SVG/1.1/DTD/svg11.dtd"><svg t="1604633527294" class="icon" viewBox="0 0 1024 1024" version="1.1" xmlns="http://www.w3.org/2000/svg" p-id="3697" xmlns:xlink="http://www.w3.org/1999/xlink" width="32" height="32"><defs><style type="text/css"></style></defs><path d="M772.465625 975.6288125c-10.418625 0-22.5736875-3.472875-32.9923125-8.68218749l-225.73687499-112.86843752-227.47331251 112.86843752c-22.5736875 12.1550625-52.093125 10.418625-72.93037501-5.20931251-20.83725-15.6279375-32.99231251-43.4109375-27.78299998-69.4575l46.8838125-243.10125L53.5805 482.48056251C34.4796875 463.37974999 27.5339375 433.8603125 34.4796875 409.5501875c8.6821875-26.0465625 29.51943749-45.14737499 57.30243751-48.62025l248.31056249-45.147375 111.13200001-225.736875c12.1550625-24.310125 36.4651875-39.9380625 62.51175-39.9380625s52.093125 15.6279375 62.51175 39.9380625l111.13199999 225.736875 248.31056251 43.4109375c26.0465625 3.472875 48.62025001 22.5736875 55.56599999 48.62025 8.6821875 26.0465625 1.73643751 53.8295625-17.364375 72.930375L795.03931251 649.1785625l45.14737499 243.10125c5.2093125 27.783-6.94575 53.8295625-27.783 69.4575-10.418625 8.6821875-24.310125 13.89149999-39.9380625 13.8915z" fill="#f4ea2a" p-id="3698"></path></svg>