<?xml version="1.0" standalone="no"?><!DOCTYPE svg PUBLIC "-//W3C//DTD SVG 1.1//EN" "http://www.w3.org/Graphics/SVG/1.1/DTD/svg11.dtd"><svg t="1604645219686" class="icon" viewBox="0 0 1024 1024" version="1.1" xmlns="http://www.w3.org/2000/svg" p-id="5337" xmlns:xlink="http://www.w3.org/1999/xlink" width="32" height="32"><defs><style type="text/css"></style></defs><path d="M512 76.8C271.648 76.8 76.8 271.648 76.8 512c0 240.384 194.848 435.2 435.2 435.2 240.384 0 435.2-194.816 435.2-435.2 0-240.352-194.816-435.2-435.2-435.2z m160 544c12.8 12.768 12.8 38.368 0 51.2s-38.4 12.8-51.2 0L512 563.2 403.2 672c-12.8 12.8-38.4 12.8-51.2 0s-12.8-38.4 0-51.2l108.8-108.8-108.8-108.8c-12.8-12.8-12.8-38.4 0-51.2s38.4-12.8 51.2 0l108.8 108.8 108.8-108.8c12.768-12.8 38.368-12.8 51.2 0s12.8 38.4 0 51.2L563.2 512l108.8 108.8z" fill="#FE6D68" p-id="5338"></path></svg>